<svg width="166" height="64" viewBox="0 0 166 64" fill="none" xmlns="http://www.w3.org/2000/svg">
<path fill-rule="evenodd" clip-rule="evenodd" d="M45.9827 32.9914L22.9914 10L0 32.9914L22.9914 55.9828L45.9827 32.9914ZM38.2118 33.0711L23.0711 17.9304L7.93048 33.0711L23.0711 48.2117L38.2118 33.0711ZM24.2326 20.6614C20.9607 17.3894 16.523 15.5513 11.8958 15.5513H5.55142L5.55142 15.5513H0.000131288V50.4451H5.55142L11.8958 50.4451V44.8938H5.55142V21.1026H11.8958V21.0477C15.0652 21.0477 18.1049 22.3067 20.3461 24.5479C22.5872 26.7891 23.8463 29.8287 23.8463 32.9982C23.8463 36.1677 22.5872 39.2074 20.3461 41.4485C18.1049 43.6897 15.0652 44.9488 11.8958 44.9488L11.8958 50.4451C16.523 50.4451 20.9607 48.607 24.2326 45.3351C27.5045 42.0631 29.3427 37.6254 29.3427 32.9982C29.3427 28.371 27.5045 23.9333 24.2326 20.6614Z" fill="#EFF5F9"/>
<path d="M75.1986 43H71.8066L63.7106 32.088L61.3746 34.136V43H58.4946V20.152H61.3746V31.416C62.0146 30.6907 62.6653 29.9653 63.3266 29.24C63.988 28.5147 64.6493 27.7893 65.3106 27.064L71.4866 20.152H74.8466L65.7906 30.104L75.1986 43ZM78.3071 43V20.152H81.1871V40.44H91.1711V43H78.3071ZM113.392 31.352C113.392 33.912 112.912 36.056 111.952 37.784C111.014 39.512 109.659 40.8133 107.888 41.688C106.118 42.5627 103.974 43 101.456 43H95.0884V20.152H102.128C104.432 20.152 106.427 20.5787 108.112 21.432C109.798 22.2853 111.099 23.544 112.016 25.208C112.934 26.8507 113.392 28.8987 113.392 31.352ZM110.352 31.448C110.352 29.4213 110.011 27.7573 109.328 26.456C108.667 25.1547 107.686 24.1947 106.384 23.576C105.104 22.936 103.547 22.616 101.712 22.616H97.9684V40.536H101.072C104.166 40.536 106.48 39.7787 108.016 38.264C109.574 36.728 110.352 34.456 110.352 31.448ZM124.703 25.528C126.175 25.528 127.434 25.848 128.479 26.488C129.546 27.128 130.357 28.0347 130.911 29.208C131.487 30.36 131.775 31.7147 131.775 33.272V34.968H120.031C120.074 36.9093 120.565 38.392 121.503 39.416C122.463 40.4187 123.797 40.92 125.503 40.92C126.591 40.92 127.551 40.824 128.383 40.632C129.237 40.4187 130.111 40.12 131.007 39.736V42.2C130.133 42.584 129.269 42.8613 128.415 43.032C127.562 43.224 126.549 43.32 125.375 43.32C123.754 43.32 122.314 42.9893 121.055 42.328C119.818 41.6667 118.847 40.6853 118.143 39.384C117.461 38.0613 117.119 36.4507 117.119 34.552C117.119 32.6747 117.429 31.064 118.047 29.72C118.687 28.376 119.573 27.3413 120.703 26.616C121.855 25.8907 123.189 25.528 124.703 25.528ZM124.671 27.832C123.327 27.832 122.261 28.2693 121.471 29.144C120.703 29.9973 120.245 31.192 120.095 32.728H128.831C128.831 31.7467 128.682 30.8933 128.383 30.168C128.085 29.4427 127.626 28.8773 127.007 28.472C126.41 28.0453 125.631 27.832 124.671 27.832ZM152.622 20.152L144.462 43H141.582L133.422 20.152H136.43L141.582 34.808C141.817 35.4267 142.019 36.024 142.19 36.6C142.361 37.176 142.51 37.7307 142.638 38.264C142.787 38.776 142.915 39.288 143.022 39.8C143.129 39.288 143.246 38.7653 143.374 38.232C143.523 37.6987 143.683 37.144 143.854 36.568C144.046 35.992 144.249 35.384 144.462 34.744L149.582 20.152H152.622Z" fill="#EFF5F9"/>
</svg>
